<svg width="64" height="64" viewBox="0 0 64 64" fill="none" xmlns="http://www.w3.org/2000/svg">
<path d="M56.3332 28.9033C55.7882 28.9033 55.2411 29.0324 54.7507 29.277L51.5301 30.8873H47.5662L44.3456 29.277C43.8553 29.0324 43.3092 28.9033 42.7631 28.9033C40.8132 28.9033 39.2256 30.4909 39.2256 32.4409V35.6884C39.2256 37.6393 40.8132 39.2259 42.7631 39.2259C43.3082 39.2259 43.8542 39.0969 44.3456 38.8533L47.5662 37.2419H51.5311L54.7528 38.8543C55.2421 39.0969 55.7882 39.2259 56.3332 39.2259C58.2831 39.2259 59.8707 37.6393 59.8707 35.6884V32.4409C59.8707 30.4909 58.2831 28.9033 56.3332 28.9033ZM49.5482 37.1614C47.8377 37.1614 46.4514 35.7751 46.4514 34.0646C46.4514 32.3542 47.8377 30.9678 49.5482 30.9678C51.2586 30.9678 52.6449 32.3542 52.6449 34.0646C52.6449 35.7751 51.2586 37.1614 49.5482 37.1614Z" fill="#D0DB1D"/>
<path d="M4.12891 42.3228H14.4515V47.484H4.12891V42.3228Z" fill="#D0DB1D"/>
<path d="M60.9032 22.7097H42.3226V20.3283L44.5523 19.4921C48.1579 18.1399 50.5806 14.6436 50.5806 10.7933V4.12903C50.5806 1.85187 48.7288 0 46.4516 0C44.1744 0 42.3226 1.85187 42.3226 4.12903V9.26865C42.3226 10.9884 40.9239 12.3871 39.2041 12.3871H37.0477C38.3897 11.0741 39.2258 9.24697 39.2258 7.22581C39.2258 3.24129 35.9845 0 32 0C28.0155 0 24.7742 3.24129 24.7742 7.22581C24.7742 9.24697 25.6103 11.0741 26.9523 12.3871H26.8387C21.7166 12.3871 17.5484 16.5554 17.5484 21.6774V22.7097H3.09677C1.38942 22.7097 0 24.0991 0 25.8064V48.5161C0 50.2235 1.38942 51.6129 3.09677 51.6129H22.5703L21.7032 59.4157C21.4514 61.6764 23.0865 63.7223 25.3574 63.9763C25.5236 63.9928 25.6661 64 25.8075 64C27.9143 64 29.6785 62.4206 29.9097 60.3252L30.8779 51.6129H33.1221L34.0893 60.3252C34.3215 62.4206 36.0857 64 38.1925 64C38.335 64 38.4764 63.9928 38.6519 63.9752C40.9135 63.7223 42.5486 61.6764 42.2968 59.4157L41.4297 51.6129H60.9032C62.6106 51.6129 64 50.2235 64 48.5161V25.8064C64 24.0991 62.6106 22.7097 60.9032 22.7097ZM47.8286 38.2926L44.1043 45.7414L41.7806 43.4178L47.8286 38.2926ZM57.3161 43.4178L54.9925 45.7414L51.2681 38.2926L57.3161 43.4178ZM49.5484 36.129C48.4098 36.129 47.4839 35.2031 47.4839 34.0645C47.4839 32.9259 48.4098 32 49.5484 32C50.687 32 51.6129 32.9259 51.6129 34.0645C51.6129 35.2031 50.687 36.129 49.5484 36.129ZM26.8387 7.22581C26.8387 4.37987 29.1541 2.06452 32 2.06452C34.8459 2.06452 37.1613 4.37987 37.1613 7.22581C37.1613 10.0717 34.8459 12.3871 32 12.3871C29.1541 12.3871 26.8387 10.0717 26.8387 7.22581ZM19.6129 21.6774C19.6129 17.6929 22.8542 14.4516 26.8387 14.4516H39.2041C42.0625 14.4516 44.3871 12.127 44.3871 9.26865V4.12903C44.3871 2.99045 45.313 2.06452 46.4516 2.06452C47.5902 2.06452 48.5161 2.99045 48.5161 4.12903V10.7933C48.5161 13.7889 46.6323 16.5079 43.8276 17.5587L40.2581 18.8975V22.7097H35.0803C35.0813 22.0883 34.9584 21.4586 34.6622 20.865C33.6743 18.8852 31.1959 17.9768 29.0839 19.0359L22.2111 22.8387L23.2103 24.6452L30.0459 20.8619C31.0359 20.3675 32.3221 20.7959 32.8165 21.7868C33.3254 22.8036 32.9105 24.0465 31.8803 24.5615L24.1662 28.5533C23.7234 28.7825 23.2279 28.9032 22.7314 28.9032C21.0116 28.9032 19.6129 27.5045 19.6129 25.7848V21.6774ZM2.06452 48.5161V35.0968H39.2258V33.0323H2.06452V25.8064C2.06452 25.2377 2.528 24.7742 3.09677 24.7742H17.5484V25.7848C17.5484 28.6431 19.873 30.9677 22.7314 30.9677C23.5561 30.9677 24.3799 30.7675 25.1128 30.3876L32.8134 26.4031C33.5639 26.0274 34.1461 25.4514 34.5373 24.7742H48.5161V30.0821C46.7406 30.5435 45.4194 32.1466 45.4194 34.0645C45.4194 35.0988 45.8147 36.0341 46.4454 36.7587L38.7355 43.2919L44.6699 49.2263L48.5161 41.5339V49.5484H3.09677C2.528 49.5484 2.06452 49.0859 2.06452 48.5161ZM27.8575 60.0981C27.7337 61.2201 26.7634 62.0439 25.5773 61.9231C24.447 61.7972 23.6294 60.7752 23.7543 59.6439L24.6472 51.6129H28.801L27.8575 60.0981ZM40.2457 59.6428C40.3716 60.7742 39.5541 61.7961 38.432 61.921C38.3432 61.9303 38.2679 61.9355 38.1925 61.9355C37.1396 61.9355 36.2581 61.1448 36.1425 60.0981L35.199 51.6129H39.3528L40.2457 59.6428ZM61.9355 33.0323H59.871V35.0968H61.9355V48.5161C61.9355 49.0859 61.472 49.5484 60.9032 49.5484H50.5806V41.5339L54.4268 49.2263L60.3613 43.2919L52.6514 36.7587C53.2821 36.0341 53.6774 35.0988 53.6774 34.0645C53.6774 32.1466 52.3561 30.5435 50.5806 30.0821V24.7742H60.9032C61.472 24.7742 61.9355 25.2377 61.9355 25.8064V33.0323Z" fill="#33333A"/>
<path d="M4.12891 45.4194H6.19342V47.4839H4.12891V45.4194Z" fill="#33333A"/>
<path d="M12.3872 45.4194H14.4517V47.4839H12.3872V45.4194Z" fill="#33333A"/>
<path d="M8.2583 45.4194H10.3228V47.4839H8.2583V45.4194Z" fill="#33333A"/>
<path d="M4.12891 41.2905H14.4515V43.355H4.12891V41.2905Z" fill="#33333A"/>
</svg>
