<svg width="64" height="64" viewBox="0 0 64 64" fill="none" xmlns="http://www.w3.org/2000/svg">
<path d="M29.359 33.802C29.123 33.932 28.859 34 28.59 34C27.712 34 27 33.288 27 32.41V32.285C27 32.096 27.034 31.909 27.099 31.732L29.495 25.27C28.211 22.714 27.663 19.724 28.211 16.559C28.72 13.627 30.17 11.005 32.22 9H7C5.897 9 5 9.897 5 11V53C5 54.103 5.897 55 7 55H28.75L30.326 48.698C30.657 47.373 31.71 46.388 33 46.097V31.79L29.359 33.802Z" fill="#D0DB1D"/>
<path d="M33 11V13H36.181L38.181 23H49V22L49.929 22.372L52 17.192V15H38.619L37.819 11H33ZM49.923 17L48.323 21H39.82L39.02 17H49.923Z" fill="#33333A"/>
<path d="M18 5H24V7H18V5Z" fill="#33333A"/>
<path d="M14 5H16V7H14V5Z" fill="#33333A"/>
<path d="M15 57H23V59H15V57Z" fill="#33333A"/>
<path d="M62.867 57.347L59.647 44.467C59.138 42.426 57.312 41 55.208 41H46.792C44.688 41 42.862 42.426 42.354 44.466L42.22 45H42.219H37V33.131C39.209 33.921 41.569 34.181 43.961 33.873C50.635 33.012 56.07 27.55 56.884 20.888C57.451 16.253 55.904 11.71 52.639 8.426C49.372 5.141 44.836 3.566 40.206 4.105C39.05 4.239 37.934 4.515 36.87 4.903C36.367 2.673 34.379 1 32 1H6C3.243 1 1 3.243 1 6V58C1 60.757 3.243 63 6 63H31.562H33.1H44.003H44.439H58.424C60.947 63 63 60.947 63 58.424C63 58.061 62.955 57.697 62.867 57.347ZM49 43H53V45C53 46.103 52.103 47 51 47C49.897 47 49 46.103 49 45V43ZM35 47H41V50C41 51.654 39.654 53 38 53C36.346 53 35 51.654 35 50V47ZM40.437 6.091C44.458 5.626 48.391 6.988 51.22 9.836C54.05 12.683 55.391 16.623 54.9 20.646C54.195 26.415 49.487 31.144 43.706 31.891C40.685 32.283 37.736 31.64 35.16 30.04L34.662 29.731L28.879 32.927C28.498 33.137 28 32.836 28 32.41V32.285C28 32.215 28.012 32.147 28.037 32.08L30.584 25.209L30.389 24.82C29.127 22.309 28.715 19.511 29.198 16.729C30.168 11.123 34.79 6.748 40.437 6.091ZM3 58V6C3 4.346 4.346 3 6 3H32C33.57 3 34.847 4.216 34.975 5.753C30.981 7.881 28.027 11.767 27.227 16.388C26.696 19.45 27.105 22.528 28.41 25.322L26.164 31.381C26.055 31.669 26 31.974 26 32.285V32.41C26 33.838 27.162 35 28.59 35C29.026 35 29.458 34.889 29.843 34.677L34.614 32.041C34.741 32.113 34.872 32.173 35.001 32.241V45H33.782C31.684 45 29.865 46.421 29.356 48.455L27.136 57.333C27.046 57.696 27 58.068 27 58.438C27 59.387 27.293 60.269 27.791 61H6C4.346 61 3 59.654 3 58ZM44.003 61H33.1H31.562C30.149 61 29 59.851 29 58.438C29 58.23 29.026 58.02 29.076 57.816L31.295 48.939C31.515 48.061 32.173 47.39 33 47.126V50C33 52.757 35.243 55 38 55C40.757 55 43 52.757 43 50V47.126C43.827 47.391 44.485 48.061 44.705 48.939L46.923 57.815C46.974 58.021 47 58.23 47 58.438C47 59.851 45.851 61 44.438 61H44.003ZM58.424 61H48.209C48.707 60.269 49 59.388 49 58.438C49 58.068 48.954 57.696 48.863 57.332L46.644 48.455C46.304 47.095 45.371 46.021 44.167 45.451L44.292 44.951C44.58 43.803 45.607 43 46.792 43H47V45C47 47.206 48.794 49 51 49C53.206 49 55 47.206 55 45V43H55.208C56.393 43 57.42 43.803 57.707 44.951L60.928 57.831C60.976 58.024 61 58.224 61 58.424C61 59.845 59.845 61 58.424 61Z" fill="#33333A"/>
<path d="M25 13H9V21H25V13ZM23 19H11V15H23V19Z" fill="#33333A"/>
<path d="M9 23H25V25H9V23Z" fill="#33333A"/>
<path d="M9 27H25V29H9V27Z" fill="#33333A"/>
<path d="M25 31H9V39H25V31ZM23 37H11V33H23V37Z" fill="#33333A"/>
<path d="M9 41H29V43H9V41Z" fill="#33333A"/>
<path d="M9 45H29V47H9V45Z" fill="#33333A"/>
<path d="M9 49H19V51H9V49Z" fill="#33333A"/>
<path d="M21 49H23V51H21V49Z" fill="#33333A"/>
<path d="M25 49H27V51H25V49Z" fill="#33333A"/>
<path d="M39 27C37.346 27 36 25.654 36 24C36 22.346 37.346 21 39 21C40.654 21 42 22.346 42 24C42 25.654 40.654 27 39 27Z" fill="#D0DB1D"/>
<path d="M49 27C47.346 27 46 25.654 46 24C46 22.346 47.346 21 49 21C50.654 21 52 22.346 52 24C52 25.654 50.654 27 49 27Z" fill="#D0DB1D"/>
</svg>
