<svg width="64" height="64" viewBox="0 0 64 64" fill="none" xmlns="http://www.w3.org/2000/svg">
<path d="M29 22V12C29 8.686 26.314 6 23 6C19.686 6 17 8.686 17 12V22H13V12C13 6.477 17.477 2 23 2C28.523 2 33 6.477 33 12V22H29Z" fill="#D0DB1D"/>
<path d="M34 27H12C10.346 27 9 28.346 9 30V52C9 53.654 10.346 55 12 55H30V51C30 49.47 33.055 48.211 37 48.026V30C37 28.346 35.654 27 34 27ZM24 48H22L14 38L17 32H29L32 38L24 48Z" fill="#D0DB1D"/>
<path d="M26 21H36V23H26V21Z" fill="#33333A"/>
<path d="M10 21H20V23H10V21Z" fill="#33333A"/>
<path d="M24.4798 49L33.1798 38.125L29.6178 31H16.3818L12.8198 38.125L21.5198 49H24.4798ZM24.6558 39L22.9998 44.52L21.3438 39H24.6558ZM21.6178 37L22.9998 34.236L24.3818 37H21.6178ZM26.7438 39H29.9188L24.8388 45.351L26.7438 39ZM27.6178 37L28.9998 34.236L30.3818 37H27.6178ZM25.9998 35.764L24.6178 33H27.3818L25.9998 35.764ZM19.9998 35.764L18.6178 33H21.3818L19.9998 35.764ZM18.3818 37H15.6178L16.9998 34.236L18.3818 37ZM19.2558 39L21.1608 45.351L16.0808 39H19.2558Z" fill="#33333A"/>
<path d="M17 15H29V17H17V15Z" fill="black"/>
<path d="M58 43.3858V40.9998H56V43.0958C55.342 43.0348 54.671 42.9998 54 42.9998C49.527 42.9998 45 44.3738 45 46.9998V48.3998C44.693 48.2368 44.359 48.0868 44 47.9518V15.9998H41.058L50 4.61784L58.942 15.9998H56V34.9998H58V17.9998H63.058L50 1.38184L38.185 16.4188C37.327 15.5428 36.145 14.9998 34.831 14.9998H33V16.9998H34.831C36.172 16.9998 37.298 17.9618 37.507 19.2868L41.942 47.3748C40.707 47.1278 39.352 46.9998 38 46.9998C33.527 46.9998 29 48.3738 29 50.9998V56.9998H5.709C4.215 56.9998 3 55.7848 3 54.2908C3 54.1478 3.012 54.0058 3.032 53.8688L8.494 19.2858C8.702 17.9618 9.828 16.9998 11.169 16.9998H13V14.9998H11.169C8.837 14.9998 6.881 16.6718 6.519 18.9748L1.057 53.5618C1.02 53.8028 1 54.0468 1 54.2908C1 56.8878 3.112 58.9998 5.709 58.9998H29C29 61.6258 33.527 62.9998 38 62.9998C41.202 62.9998 44.423 62.2918 46 60.9278C47.577 62.2918 50.798 62.9998 54 62.9998C58.473 62.9998 63 61.6258 63 58.9998V46.9998C63 45.1798 60.824 43.9628 58 43.3858ZM37 54.9748V56.9738C36.271 56.9388 35.601 56.8688 35 56.7708V54.7848C35.65 54.8788 36.321 54.9428 37 54.9748ZM37 58.9748V60.9738C36.271 60.9388 35.601 60.8688 35 60.7708V58.7848C35.65 58.8788 36.321 58.9428 37 58.9748ZM39 58.9748C39.679 58.9438 40.35 58.8798 41 58.7848V60.7708C40.399 60.8688 39.729 60.9388 39 60.9738V58.9748ZM39 56.9738V54.9748C39.679 54.9438 40.35 54.8798 41 54.7848V56.7708C40.399 56.8688 39.729 56.9388 39 56.9738ZM43 54.3718C43.746 54.1648 44.422 53.9068 45 53.5998V54.9998C45 55.3058 44.311 55.8438 43 56.2858V54.3718ZM47 53.5998C47.578 53.9068 48.254 54.1658 49 54.3718V56.2858C47.689 55.8438 47 55.3058 47 54.9998V53.5998ZM51 54.7848C51.65 54.8788 52.321 54.9428 53 54.9748V56.9738C52.271 56.9388 51.601 56.8688 51 56.7708V54.7848ZM53 58.9748V60.9738C52.271 60.9388 51.601 60.8688 51 60.7708V58.7848C51.65 58.8788 52.321 58.9428 53 58.9748ZM55 58.9748C55.679 58.9438 56.35 58.8798 57 58.7848V60.7708C56.399 60.8688 55.729 60.9388 55 60.9738V58.9748ZM55 56.9738V54.9748C55.679 54.9438 56.35 54.8798 57 54.7848V56.7708C56.399 56.8688 55.729 56.9388 55 56.9738ZM55 52.9738V50.9748C55.679 50.9438 56.35 50.8798 57 50.7848V52.7708C56.399 52.8688 55.729 52.9388 55 52.9738ZM53 52.9738C52.271 52.9388 51.601 52.8688 51 52.7708V50.7848C51.65 50.8788 52.321 50.9428 53 50.9748V52.9738ZM49 52.2858C47.689 51.8438 47 51.3058 47 50.9998V49.5998C47.578 49.9068 48.254 50.1658 49 50.3718V52.2858ZM39.209 17.9998H42V34.9228L39.482 18.9758C39.428 18.6328 39.329 18.3108 39.209 17.9998ZM38 48.9998C42.547 48.9998 45 50.4198 45 50.9998C45 51.5798 42.547 52.9998 38 52.9998C33.453 52.9998 31 51.5798 31 50.9998C31 50.4198 33.453 48.9998 38 48.9998ZM31 53.5998C31.578 53.9068 32.254 54.1658 33 54.3718V56.2858C31.689 55.8438 31 55.3058 31 54.9998V53.5998ZM31 58.9998V57.5998C31.578 57.9068 32.254 58.1658 33 58.3718V60.2858C31.689 59.8438 31 59.3058 31 58.9998ZM43 60.2858V58.3718C43.746 58.1648 44.422 57.9068 45 57.5998V58.9998C45 59.3058 44.311 59.8438 43 60.2858ZM47 58.9998V57.5998C47.578 57.9068 48.254 58.1658 49 58.3718V60.2858C47.689 59.8438 47 59.3058 47 58.9998ZM59 60.2858V58.3718C59.746 58.1648 60.422 57.9068 61 57.5998V58.9998C61 59.3058 60.311 59.8438 59 60.2858ZM59 56.2858V54.3718C59.746 54.1648 60.422 53.9068 61 53.5998V54.9998C61 55.3058 60.311 55.8438 59 56.2858ZM59 52.2858V50.3718C59.746 50.1648 60.422 49.9068 61 49.5998V50.9998C61 51.3058 60.311 51.8438 59 52.2858ZM54 48.9998C49.453 48.9998 47 47.5798 47 46.9998C47 46.4198 49.453 44.9998 54 44.9998C58.547 44.9998 61 46.4198 61 46.9998C61 47.5798 58.547 48.9998 54 48.9998Z" fill="#33333A"/>
<path d="M51 29C51.552 29 52 29.448 52 30H54C54 28.346 52.654 27 51 27V25H49V27H46V30C46 31.654 47.346 33 49 33H51C51.552 33 52 33.448 52 34V35H49C48.448 35 48 34.552 48 34H46C46 35.654 47.346 37 49 37V39H51V37H54V34C54 32.346 52.654 31 51 31H49C48.448 31 48 30.552 48 30V29H51Z" fill="#33333A"/>
<path d="M56 37H58V39H56V37Z" fill="black"/>
</svg>
