<svg width="495" height="496" viewBox="0 0 495 496" fill="none" xmlns="http://www.w3.org/2000/svg">
<mask id="mask0" mask-type="alpha" maskUnits="userSpaceOnUse" x="0" y="0" width="495" height="496">
<rect x="247.062" y="0.938477" width="349.398" height="349.398" transform="rotate(45 247.062 0.938477)" fill="#D8D8D8"/>
</mask>
<g mask="url(#mask0)">
<rect x="-0.114502" y="247.763" width="349.226" height="9.72503" transform="rotate(-45 -0.114502 247.763)" fill="#FFAFB8"/>
<rect x="11.3459" y="259.225" width="349.226" height="9.72503" transform="rotate(-45 11.3459 259.225)" fill="#FFAFB8"/>
<rect x="22.8071" y="270.686" width="349.226" height="9.72503" transform="rotate(-45 22.8071 270.686)" fill="#FFAFB8"/>
<rect x="34.2681" y="282.146" width="349.226" height="9.72503" transform="rotate(-45 34.2681 282.146)" fill="#FFAFB8"/>
<rect x="45.729" y="293.607" width="349.226" height="9.72503" transform="rotate(-45 45.729 293.607)" fill="#FFAFB8"/>
<rect x="57.1899" y="305.068" width="349.226" height="9.72503" transform="rotate(-45 57.1899 305.068)" fill="#FFAFB8"/>
<rect x="68.6511" y="316.529" width="349.226" height="9.72503" transform="rotate(-45 68.6511 316.529)" fill="#FFAFB8"/>
<rect x="80.1121" y="327.991" width="349.226" height="9.72503" transform="rotate(-45 80.1121 327.991)" fill="#FFAFB8"/>
<rect x="91.5735" y="339.452" width="349.226" height="9.72503" transform="rotate(-45 91.5735 339.452)" fill="#FFAFB8"/>
<rect x="103.034" y="350.913" width="349.226" height="9.72503" transform="rotate(-45 103.034 350.913)" fill="#FFAFB8"/>
<rect x="114.496" y="362.374" width="349.226" height="9.72503" transform="rotate(-45 114.496 362.374)" fill="#FFAFB8"/>
<rect x="125.957" y="373.835" width="349.226" height="9.72503" transform="rotate(-45 125.957 373.835)" fill="#FFAFB8"/>
<rect x="137.418" y="385.296" width="349.226" height="9.72503" transform="rotate(-45 137.418 385.296)" fill="#FFAFB8"/>
<rect x="148.879" y="396.757" width="349.226" height="9.72503" transform="rotate(-45 148.879 396.757)" fill="#FFAFB8"/>
<rect x="160.34" y="408.219" width="349.226" height="9.72503" transform="rotate(-45 160.34 408.219)" fill="#FFAFB8"/>
<rect x="171.801" y="419.679" width="349.226" height="9.72503" transform="rotate(-45 171.801 419.679)" fill="#FFAFB8"/>
<rect x="183.262" y="431.141" width="349.226" height="9.72503" transform="rotate(-45 183.262 431.141)" fill="#FFAFB8"/>
<rect x="194.723" y="442.602" width="349.226" height="9.72503" transform="rotate(-45 194.723 442.602)" fill="#FFAFB8"/>
<rect x="206.184" y="454.062" width="349.226" height="9.72503" transform="rotate(-45 206.184 454.062)" fill="#FFAFB8"/>
<rect x="217.645" y="465.523" width="349.226" height="9.72503" transform="rotate(-45 217.645 465.523)" fill="#FFAFB8"/>
<rect x="229.106" y="476.984" width="349.226" height="9.72503" transform="rotate(-45 229.106 476.984)" fill="#FFAFB8"/>
<rect x="240.567" y="488.445" width="349.226" height="9.72503" transform="rotate(-45 240.567 488.445)" fill="#FFAFB8"/>
</g>
</svg>
