<svg width="1440" height="389" viewBox="0 0 1440 389" fill="none" xmlns="http://www.w3.org/2000/svg">
<path fill-rule="evenodd" clip-rule="evenodd" d="M1.51241e-05 216L60 194C120 173 240 130 360 158C480 187 600 288 720 281C840 274 960 158 1080 158C1200 158 1320 274 1380 331L1440 389L1440 6.48536e-05L1380 5.96083e-05C1320 5.43629e-05 1200 4.38722e-05 1080 3.33814e-05C960 2.28907e-05 840 1.24e-05 720 1.90924e-06C600 -8.58149e-06 480 -1.90722e-05 360 -2.9563e-05C240 -4.00537e-05 120 -5.05444e-05 60 -5.57898e-05L3.40075e-05 -6.10352e-05L1.51241e-05 216Z" fill="#F6FBEC"/>
</svg>
