<svg width="263" height="445" viewBox="0 0 263 445" fill="none" xmlns="http://www.w3.org/2000/svg">
<mask id="mask0" mask-type="alpha" maskUnits="userSpaceOnUse" x="0" y="0" width="508" height="445">
<path d="M469.089 60.2127C409.835 -5.83095 367.58 0.140091 348.292 0.139969C329.003 0.139848 289.321 23.9503 270.804 37.838C256.484 48.5778 209.595 61.7557 184.391 67.1565C120.354 80.8788 101.065 85.0733 76.3762 98.7895C9.25232 136.081 -10.4735 216.942 4.95724 280.208C20.388 343.475 51.2495 344.246 80.568 355.048C109.886 365.849 116.496 370.371 163.56 420.521C201.211 460.641 240.457 442.381 257.688 427.465C274.919 412.548 304.824 373.583 358.759 349.539C422.797 320.993 469.089 270.843 479.891 253.097C490.692 235.352 543.157 142.767 469.089 60.2127Z" fill="#A4D23E" fill-opacity="0.6"/>
</mask>
<g mask="url(#mask0)">
<rect width="507.672" height="6.17231" transform="matrix(-1 0 0 1 508 -3.08618)" fill="#C0D731"/>
<rect width="507.672" height="6.17231" transform="matrix(-1 0 0 1 508 15.4307)" fill="#C0D731"/>
<rect width="507.672" height="6.17231" transform="matrix(-1 0 0 1 508 33.9476)" fill="#C0D731"/>
<rect width="507.672" height="6.17231" transform="matrix(-1 0 0 1 508 52.4646)" fill="#C0D731"/>
<rect width="507.672" height="6.17231" transform="matrix(-1 0 0 1 508 70.9814)" fill="#C0D731"/>
<rect width="507.672" height="6.17231" transform="matrix(-1 0 0 1 508 89.4984)" fill="#C0D731"/>
<rect width="507.672" height="6.17231" transform="matrix(-1 0 0 1 508 108.015)" fill="#C0D731"/>
<rect width="507.672" height="6.17231" transform="matrix(-1 0 0 1 508 126.532)" fill="#C0D731"/>
<rect width="507.672" height="6.17231" transform="matrix(-1 0 0 1 508 145.049)" fill="#C0D731"/>
<rect width="507.672" height="6.17231" transform="matrix(-1 0 0 1 508 163.566)" fill="#C0D731"/>
<rect width="507.672" height="6.17231" transform="matrix(-1 0 0 1 508 182.083)" fill="#C0D731"/>
<rect width="507.672" height="6.17231" transform="matrix(-1 0 0 1 508 200.6)" fill="#C0D731"/>
<rect width="507.672" height="6.17231" transform="matrix(-1 0 0 1 508 219.117)" fill="#C0D731"/>
<rect width="507.672" height="6.17231" transform="matrix(-1 0 0 1 508 237.634)" fill="#C0D731"/>
<rect width="507.672" height="6.17231" transform="matrix(-1 0 0 1 508 256.151)" fill="#C0D731"/>
<rect width="507.672" height="6.17231" transform="matrix(-1 0 0 1 508 274.667)" fill="#C0D731"/>
<rect width="507.672" height="6.17231" transform="matrix(-1 0 0 1 508 293.184)" fill="#C0D731"/>
<rect width="507.672" height="6.17231" transform="matrix(-1 0 0 1 508 311.701)" fill="#C0D731"/>
<rect width="507.672" height="6.17231" transform="matrix(-1 0 0 1 508 330.218)" fill="#C0D731"/>
<rect width="507.672" height="6.17231" transform="matrix(-1 0 0 1 508 348.735)" fill="#C0D731"/>
<rect width="507.672" height="6.17231" transform="matrix(-1 0 0 1 508 367.252)" fill="#C0D731"/>
<rect width="507.672" height="6.17231" transform="matrix(-1 0 0 1 508 385.769)" fill="#C0D731"/>
<rect width="507.672" height="6.17231" transform="matrix(-1 0 0 1 508 404.286)" fill="#C0D731"/>
<rect width="507.672" height="6.17231" transform="matrix(-1 0 0 1 508 422.803)" fill="#C0D731"/>
<rect width="507.672" height="6.17231" transform="matrix(-1 0 0 1 508 441.32)" fill="#C0D731"/>
</g>
</svg>
